<?xml version="1.0" standalone="no"?>
<!DOCTYPE svg PUBLIC "-//W3C//DTD SVG 20010904//EN"
 "http://www.w3.org/TR/2001/REC-SVG-20010904/DTD/svg10.dtd">
<svg version="1.0" xmlns="http://www.w3.org/2000/svg"
 width="260.000000pt" height="260.000000pt" viewBox="0 0 260.000000 260.000000"
 preserveAspectRatio="xMidYMid meet">
<metadata>
Created by potrace 1.11, written by Peter Selinger 2001-2013
</metadata>
<g transform="translate(0.000000,260.000000) scale(0.100000,-0.100000)"
fill="#000000" stroke="none">
<path d="M229 1970 c-1 -3 -2 -293 -3 -646 l-1 -641 458 0 457 0 1 31 c3 85 1
196 -3 208 -4 10 -65 13 -292 12 l-286 0 -1 73 c0 40 0 93 0 118 0 25 0 59 0
75 l1 30 265 0 265 0 0 125 0 125 -265 0 -265 0 -1 45 c0 25 0 65 0 90 0 25 0
59 0 75 l1 30 280 0 c217 0 280 3 281 13 4 52 3 221 -2 229 -6 9 -888 18 -890
8z"/>
<path d="M1611 1948 c-8 -21 -155 -418 -224 -603 -16 -44 -44 -120 -62 -170
-18 -49 -65 -175 -104 -280 -39 -104 -71 -195 -71 -201 0 -8 46 -11 161 -10
186 1 164 -13 214 135 l33 96 261 1 260 1 12 -36 c6 -20 25 -72 41 -116 l28
-81 165 0 c91 -1 165 2 165 5 0 5 -77 216 -115 316 -13 33 -71 190 -130 348
-58 158 -110 298 -115 310 -5 12 -21 56 -35 97 -15 41 -30 84 -35 95 -5 11
-16 41 -26 68 l-17 47 -199 0 c-197 0 -199 0 -207 -22z m252 -408 c20 -58 57
-165 82 -239 28 -80 43 -136 37 -140 -8 -5 -300 -6 -334 -2 -4 1 -1 16 6 34 7
17 46 130 87 249 40 120 76 214 80 210 4 -4 23 -54 42 -112z"/>
</g>
</svg>
