<?xml version="1.0" encoding="UTF-8"?>
<svg width="51.899mm" height="17.231mm" preserveAspectRatio="xMinYMin" version="1.1" viewBox="0 0 51.899 17.231" xmlns="http://www.w3.org/2000/svg" xmlns:cc="http://creativecommons.org/ns#" xmlns:dc="http://purl.org/dc/elements/1.1/" xmlns:rdf="http://www.w3.org/1999/02/22-rdf-syntax-ns#">
 <metadata>
  <rdf:RDF>
   <cc:Work rdf:about="">
    <dc:format>image/svg+xml</dc:format>
    <dc:type rdf:resource="http://purl.org/dc/dcmitype/StillImage"/>
    <dc:title/>
   </cc:Work>
  </rdf:RDF>
 </metadata>
 <g transform="translate(-84.504 -57.916)">
  <g transform="matrix(.91226 0 0 .91226 9.6913 5.8376)" stroke-width=".26458">
   <g fill="#0f015c" aria-label="Earth  ">
    <path d="m84.504 58.242h5.3692v1.5038h-3.3796v1.4366h3.1781v1.5038h-3.1781v1.7673h3.4933v1.5038h-5.4829z"/>
    <path d="m94.25 63.352q-0.57877 0-0.87333 0.19637-0.28939 0.19637-0.28939 0.57878 0 0.3514 0.23254 0.55294 0.23771 0.19637 0.65629 0.19637 0.52193 0 0.8785-0.37207 0.35657-0.37724 0.35657-0.94051v-0.21187zm2.8267-0.69763v3.3021h-1.8655v-0.85783q-0.37207 0.5271-0.83716 0.76998-0.46509 0.23771-1.1317 0.23771-0.89917 0-1.4624-0.52193-0.5581-0.5271-0.5581-1.3643 0-1.018 0.69763-1.4934 0.7028-0.47542 2.2014-0.47542h1.0904v-0.14469q0-0.43925-0.34623-0.64079-0.34623-0.2067-1.08-0.2067-0.59428 0-1.1059 0.11886-0.5116 0.11886-0.95084 0.35657v-1.4108q0.59428-0.14469 1.1937-0.21704 0.59944-0.07751 1.1989-0.07751 1.5658 0 2.2583 0.62012 0.69763 0.61495 0.69763 2.005z"/>
    <path d="m103.11 61.745q-0.24288-0.11369-0.48576-0.16536-0.23771-0.05684-0.48059-0.05684-0.71313 0-1.1007 0.45992-0.38241 0.45475-0.38241 1.3074v2.6665h-1.85v-5.7877h1.85v0.95084q0.35657-0.56844 0.81649-0.82682 0.46508-0.26355 1.111-0.26355 0.093 0 0.20154 0.01033 0.10852 0.0052 0.31522 0.03101z"/>
    <path d="m106.06 58.526v1.6433h1.9069v1.3229h-1.9069v2.4546q0 0.40308 0.1602 0.54777 0.16019 0.13953 0.63562 0.13953h0.95084v1.3229h-1.5865q-1.0955 0-1.5555-0.45475-0.45475-0.45992-0.45475-1.5555v-2.4546h-0.91984v-1.3229h0.91984v-1.6433z"/>
    <path d="m114.92 62.433v3.5243h-1.8603v-2.6872q0-0.75964-0.0362-1.0439-0.031-0.28422-0.11368-0.41858-0.10852-0.18087-0.29456-0.27905-0.18603-0.10335-0.42374-0.10335-0.57878 0-0.90951 0.44958-0.33072 0.44442-0.33072 1.2351v2.8474h-1.85v-8.0408h1.85v3.1006q0.41857-0.50643 0.88883-0.74414 0.47025-0.24288 1.0387-0.24288 1.0025 0 1.5193 0.61495 0.52193 0.61495 0.52193 1.788z"/>
   </g>
   <g fill="#0f015c" aria-label="Solutions">
    <path d="m90.088 67.525v1.633q-0.63562-0.28422-1.2402-0.42891-0.60461-0.14469-1.142-0.14469-0.71313 0-1.0542 0.19637-0.34106 0.19637-0.34106 0.60978 0 0.31006 0.22738 0.48576 0.23254 0.17053 0.83716 0.29456l0.84749 0.17053q1.2867 0.25838 1.8293 0.78548t0.5426 1.4986q0 1.2764-0.75964 1.9017-0.75447 0.62012-2.3099 0.62012-0.7338 0-1.4728-0.13953-0.73897-0.13952-1.4779-0.41341v-1.6795q0.73897 0.39274 1.4263 0.59428 0.69246 0.19637 1.3332 0.19637 0.65112 0 0.99735-0.21704 0.34623-0.21704 0.34623-0.62012 0-0.36173-0.23771-0.5581-0.23254-0.19637-0.93534-0.3514l-0.76998-0.17053q-1.1575-0.24805-1.695-0.79065-0.53227-0.5426-0.53227-1.4624 0-1.1524 0.74414-1.7725 0.74414-0.62012 2.1394-0.62012 0.63562 0 1.3074 0.09818 0.67179 0.09302 1.3901 0.28422z"/>
    <path d="m94.674 70.393q-0.61495 0-0.94051 0.44442-0.32039 0.43925-0.32039 1.2712t0.32039 1.2764q0.32556 0.43925 0.94051 0.43925 0.60461 0 0.925-0.43925 0.32039-0.44442 0.32039-1.2764t-0.32039-1.2712q-0.32039-0.44442-0.925-0.44442zm0-1.3229q1.4934 0 2.3306 0.80615 0.84232 0.80615 0.84232 2.2324t-0.84232 2.2324q-0.83716 0.80615-2.3306 0.80615-1.4986 0-2.3461-0.80615-0.84232-0.80615-0.84232-2.2324t0.84232-2.2324q0.84749-0.80615 2.3461-0.80615z"/>
    <path d="m98.852 66.957h1.85v8.0408h-1.85z"/>
    <path d="m102.08 72.744v-3.5347h1.8604v0.57877q0 0.47025-5e-3 1.1834-5e-3 0.70796-5e-3 0.94568 0 0.69763 0.0362 1.0077 0.0362 0.30489 0.12402 0.44442 0.11369 0.18087 0.29455 0.27905 0.18604 0.09819 0.42375 0.09819 0.57877 0 0.9095-0.44442t0.33073-1.2351v-2.8577h1.85v5.7877h-1.85v-0.83716q-0.41858 0.50643-0.88883 0.74931-0.46509 0.23771-1.0284 0.23771-1.0025 0-1.5296-0.61495-0.52193-0.61495-0.52193-1.788z"/>
    <path d="m111.37 67.567v1.6433h1.9069v1.3229h-1.9069v2.4546q0 0.40308 0.1602 0.54777 0.1602 0.13953 0.63562 0.13953h0.95084v1.3229h-1.5865q-1.0955 0-1.5555-0.45475-0.45475-0.45992-0.45475-1.5555v-2.4546h-0.91983v-1.3229h0.91983v-1.6433z"/>
    <path d="m114.07 69.21h1.85v5.7877h-1.85zm0-2.2531h1.85v1.5089h-1.85z"/>
    <path d="m120.12 70.393q-0.61494 0-0.9405 0.44442-0.3204 0.43925-0.3204 1.2712t0.3204 1.2764q0.32556 0.43925 0.9405 0.43925 0.60462 0 0.92501-0.43925 0.32039-0.44442 0.32039-1.2764t-0.32039-1.2712q-0.32039-0.44442-0.92501-0.44442zm0-1.3229q1.4934 0 2.3306 0.80615 0.84233 0.80615 0.84233 2.2324t-0.84233 2.2324q-0.83715 0.80615-2.3306 0.80615-1.4986 0-2.3461-0.80615-0.84232-0.80615-0.84232-2.2324t0.84232-2.2324q0.84749-0.80615 2.3461-0.80615z"/>
    <path d="m130.11 71.473v3.5243h-1.8604v-2.6975q0-0.74931-0.0362-1.0335-0.031-0.28422-0.11369-0.41858-0.10852-0.18087-0.29455-0.27905-0.18604-0.10335-0.42375-0.10335-0.57877 0-0.9095 0.44958-0.33073 0.44442-0.33073 1.2351v2.8474h-1.85v-5.7877h1.85v0.84749q0.41858-0.50643 0.88883-0.74414 0.47026-0.24288 1.0387-0.24288 1.0025 0 1.5193 0.61495 0.52193 0.61495 0.52193 1.788z"/>
    <path d="m136.02 69.391v1.4056q-0.59428-0.24805-1.1472-0.37207-0.55293-0.12402-1.0439-0.12402-0.52709 0-0.78548 0.13436-0.25321 0.12919-0.25321 0.40308 0 0.22221 0.1912 0.34106 0.19637 0.11886 0.69763 0.1757l0.32556 0.04651q1.4211 0.18087 1.912 0.59428 0.49092 0.41341 0.49092 1.2971 0 0.92501-0.68213 1.3901-0.68212 0.46509-2.036 0.46509-0.57361 0-1.1886-0.09302-0.60978-0.08785-1.2557-0.26872v-1.4056q0.55294 0.26872 1.1317 0.40308 0.58394 0.13436 1.1834 0.13436 0.5426 0 0.81648-0.14986 0.27389-0.14986 0.27389-0.44442 0-0.24805-0.19121-0.3669-0.18603-0.12402-0.7493-0.1912l-0.32556-0.04134q-1.2351-0.15503-1.7312-0.57361-0.49609-0.41858-0.49609-1.2712 0-0.91984 0.63045-1.3643t1.9327-0.44442q0.5116 0 1.0749 0.07752 0.56327 0.07751 1.2247 0.24288z"/>
   </g>
   <g fill="#ca0100" aria-label="Aid">
    <path d="m123.5 64.646h-3.1109l-0.49092 1.4056h-1.9999l2.8577-7.7153h2.3719l2.8577 7.7153h-1.9999zm-2.6148-1.4314h2.1136l-1.0542-3.0696z"/>
    <path d="m126.92 60.264h1.85v5.7877h-1.85zm0-2.2531h1.85v1.5089h-1.85z"/>
    <path d="m134.5 61.111v-3.1006h1.8604v8.0408h-1.8604v-0.83716q-0.3824 0.5116-0.84232 0.74931t-1.0645 0.23771q-1.0697 0-1.757-0.84749-0.68729-0.85266-0.68729-2.1911 0-1.3384 0.68729-2.1859 0.6873-0.85266 1.757-0.85266 0.59944 0 1.0594 0.24288 0.46509 0.23771 0.84749 0.74414zm-1.2196 3.7465q0.59428 0 0.90434-0.43408 0.31522-0.43408 0.31522-1.2609t-0.31522-1.2609q-0.31006-0.43408-0.90434-0.43408-0.58911 0-0.90433 0.43408-0.31006 0.43408-0.31006 1.2609t0.31006 1.2609q0.31522 0.43408 0.90433 0.43408z"/>
   </g>
  </g>
 </g>
</svg>
